<?xml version="1.0" encoding="UTF-8" standalone="no"?>
<!-- Created with Inkscape (http://www.inkscape.org/) -->

<svg
   version="1.1"
   id="svg1"
   width="1141.3333"
   height="352"
   viewBox="0 0 1141.3333 352"
   sodipodi:docname="gaussian_regression_banner.svg"
   inkscape:version="1.4 (e7c3feb100, 2024-10-09)"
   xmlns:inkscape="http://www.inkscape.org/namespaces/inkscape"
   xmlns:sodipodi="http://sodipodi.sourceforge.net/DTD/sodipodi-0.dtd"
   xmlns="http://www.w3.org/2000/svg"
   xmlns:svg="http://www.w3.org/2000/svg">
  <defs
     id="defs1">
    <clipPath
       clipPathUnits="userSpaceOnUse"
       id="clipPath1">
      <path
         d="M 0,0 H 856 V 264 H 0 Z"
         transform="scale(1.0007035,-1)"
         id="path1" />
    </clipPath>
    <clipPath
       clipPathUnits="userSpaceOnUse"
       id="clipPath2">
      <path
         d="m 207.414,185.953 h 13.172 v 13.18 h -13.172 z"
         transform="scale(1.3333333)"
         id="path2" />
    </clipPath>
    <clipPath
       clipPathUnits="userSpaceOnUse"
       id="clipPath4">
      <path
         d="M 0,0 H 856 V 264 H 0 Z"
         transform="scale(1.0007035,-1)"
         id="path4" />
    </clipPath>
    <clipPath
       clipPathUnits="userSpaceOnUse"
       id="clipPath5">
      <path
         d="m 421.414,73.961 h 13.172 v 13.18 h -13.172 z"
         transform="scale(1.3333333)"
         id="path5" />
    </clipPath>
    <clipPath
       clipPathUnits="userSpaceOnUse"
       id="clipPath7">
      <path
         d="M 0,0 H 856 V 264 H 0 Z"
         transform="scale(1.0007035,-1)"
         id="path7" />
    </clipPath>
    <clipPath
       clipPathUnits="userSpaceOnUse"
       id="clipPath8">
      <path
         d="m 635.414,96.246 h 13.172 v 13.184 h -13.172 z"
         transform="scale(1.3333333)"
         id="path8" />
    </clipPath>
    <clipPath
       clipPathUnits="userSpaceOnUse"
       id="clipPath10">
      <path
         d="M 0,0 H 856 V 264 H 0 Z"
         id="path10" />
    </clipPath>
    <clipPath
       clipPathUnits="userSpaceOnUse"
       id="clipPath12">
      <path
         d="M 0,0 H 856 V 264 H 0 Z"
         id="path12" />
    </clipPath>
    <clipPath
       clipPathUnits="userSpaceOnUse"
       id="clipPath14">
      <path
         d="M 0,0 H 856 V 264 H 0 Z"
         id="path14" />
    </clipPath>
    <clipPath
       clipPathUnits="userSpaceOnUse"
       id="clipPath16">
      <path
         d="M 0,0 H 856 V 264 H 0 Z"
         transform="scale(1.0007035,-1)"
         id="path16" />
    </clipPath>
    <clipPath
       clipPathUnits="userSpaceOnUse"
       id="clipPath18">
      <path
         d="M 0,0 H 856 V 264 H 0 Z"
         transform="scale(1.0007035,-1)"
         id="path18" />
    </clipPath>
  </defs>
  <sodipodi:namedview
     id="namedview1"
     pagecolor="#ffffff"
     bordercolor="#000000"
     borderopacity="0.25"
     inkscape:showpageshadow="2"
     inkscape:pageopacity="0.0"
     inkscape:pagecheckerboard="0"
     inkscape:deskcolor="#d1d1d1"
     inkscape:zoom="0.96466132"
     inkscape:cx="570.6666"
     inkscape:cy="176.22765"
     inkscape:window-width="1920"
     inkscape:window-height="1011"
     inkscape:window-x="0"
     inkscape:window-y="0"
     inkscape:window-maximized="1"
     inkscape:current-layer="g1">
    <inkscape:page
       x="0"
       y="0"
       id="page1"
       width="1141.3333"
       height="352"
       margin="0"
       bleed="0" />
  </sodipodi:namedview>
  <g
     id="g1"
     inkscape:groupmode="layer"
     inkscape:label="">
    <g
       id="g4">
      <g
         clip-path="url(#clipPath2)"
         id="g3">
        <path
           d="m 214.151,-194.125 c 0.418,0 0.82,0.164 1.117,0.461 0.298,0.297 0.466,0.703 0.466,1.121 0,0.422 -0.168,0.824 -0.466,1.121 -0.297,0.297 -0.699,0.461 -1.117,0.461 -0.419,0 -0.821,-0.164 -1.118,-0.461 -0.298,-0.297 -0.466,-0.699 -0.466,-1.121 0,-0.418 0.168,-0.824 0.466,-1.121 0.297,-0.297 0.699,-0.461 1.118,-0.461 z"
           style="fill:#000000;fill-opacity:1;fill-rule:nonzero;stroke:#000000;stroke-width:1.00147;stroke-linecap:butt;stroke-linejoin:round;stroke-miterlimit:10;stroke-dasharray:none;stroke-opacity:1"
           transform="scale(1.332396,-1.3333333)"
           clip-path="url(#clipPath1)"
           id="path3" />
      </g>
    </g>
    <g
       id="g7">
      <g
         clip-path="url(#clipPath5)"
         id="g6">
        <path
           d="m 428.301,-82.133 c 0.418,0 0.821,0.164 1.118,0.461 0.297,0.297 0.465,0.699 0.465,1.121 0,0.418 -0.168,0.824 -0.465,1.121 -0.297,0.297 -0.7,0.461 -1.118,0.461 -0.418,0 -0.821,-0.164 -1.118,-0.461 -0.297,-0.297 -0.465,-0.703 -0.465,-1.121 0,-0.422 0.168,-0.824 0.465,-1.121 0.297,-0.297 0.7,-0.461 1.118,-0.461 z"
           style="fill:#000000;fill-opacity:1;fill-rule:nonzero;stroke:#000000;stroke-width:1.00147;stroke-linecap:butt;stroke-linejoin:round;stroke-miterlimit:10;stroke-dasharray:none;stroke-opacity:1"
           transform="scale(1.332396,-1.3333333)"
           clip-path="url(#clipPath4)"
           id="path6" />
      </g>
    </g>
    <g
       id="g10">
      <g
         clip-path="url(#clipPath8)"
         id="g9">
        <path
           d="m 642.452,-104.422 c 0.418,0 0.82,0.168 1.118,0.465 0.297,0.297 0.465,0.699 0.465,1.117 0,0.422 -0.168,0.824 -0.465,1.121 -0.298,0.297 -0.7,0.465 -1.118,0.465 -0.419,0 -0.821,-0.168 -1.118,-0.465 -0.297,-0.297 -0.466,-0.699 -0.466,-1.121 0,-0.418 0.169,-0.82 0.466,-1.117 0.297,-0.297 0.699,-0.465 1.118,-0.465 z"
           style="fill:#000000;fill-opacity:1;fill-rule:nonzero;stroke:#000000;stroke-width:1.00147;stroke-linecap:butt;stroke-linejoin:round;stroke-miterlimit:10;stroke-dasharray:none;stroke-opacity:1"
           transform="scale(1.332396,-1.3333333)"
           clip-path="url(#clipPath7)"
           id="path9" />
      </g>
    </g>
    <g
       id="g11">
      <path
         d="M 0,167.535 V 86.992 l 4.301,0.422 4.301,0.469 4.304,0.515 4.301,0.575 4.301,0.632 4.301,0.696 4.3,0.765 4.301,0.836 4.305,0.914 4.301,0.993 4.3,1.082 4.301,1.168 4.301,1.265 4.305,1.36 4.3,1.464 4.301,1.567 4.301,1.68 4.301,1.785 4.304,1.898 4.301,2.016 4.301,2.125 4.301,2.242 4.301,2.355 4.3,2.465 4.305,2.574 4.301,2.68 4.301,2.781 4.3,2.872 4.301,2.96 4.305,3.043 4.301,3.11 4.3,3.172 4.301,3.218 4.301,3.258 4.305,3.281 4.3,3.29 4.301,3.285 4.301,3.265 4.301,3.235 4.301,3.179 4.304,3.114 4.301,3.027 4.301,2.93 4.301,2.812 4.3,2.68 4.305,2.535 4.301,2.375 4.301,2.199 4.3,2.008 4.301,0.805 4.301,-2.414 4.305,-2.61 4.3,-2.789 4.301,-2.968 4.301,-3.129 4.301,-3.282 4.305,-3.422 4.3,-3.55 4.301,-3.657 4.301,-3.757 4.301,-3.84 4.304,-3.903 4.301,-3.957 4.301,-3.988 8.601,-8.023 4.301,-3.996 4.305,-3.973 4.301,-3.926 4.3,-3.867 4.301,-3.793 4.301,-3.707 4.305,-3.606 4.3,-3.488 4.301,-3.363 4.301,-3.219 4.301,-3.07 4.305,-2.91 4.3,-2.735 4.301,-2.554 4.301,-2.368 4.301,-2.167 4.3,-1.961 4.305,-1.754 4.301,-1.535 4.301,-1.321 4.3,-1.094 4.301,-0.875 4.305,-0.648 4.301,-0.426 4.301,-0.207 4.3,0.012 4.301,0.226 4.301,0.438 4.305,0.637 4.3,0.828 4.301,1.015 4.301,1.188 4.301,1.355 4.304,-0.496 4.301,-2.347 4.301,-2.196 4.301,-2.043 4.3,-1.886 4.305,-1.727 4.301,-1.566 4.301,-1.414 4.3,-1.254 4.301,-1.098 4.301,-0.949 4.305,-0.797 4.301,-0.656 4.3,-0.516 4.301,-0.379 4.301,-0.25 4.305,-0.125 4.3,-0.008 4.301,0.106 4.301,0.215 4.301,0.316 4.304,0.414 4.301,0.508 4.301,0.594 4.301,0.679 4.301,0.762 4.3,0.836 4.305,0.914 4.301,0.988 4.301,1.059 4.3,1.125 4.301,1.199 4.305,1.266 4.301,1.332 4.3,1.402 4.301,1.469 4.301,1.535 4.301,1.606 4.304,1.668 4.301,1.73 4.301,1.801 4.301,1.859 4.3,1.918 4.305,1.981 4.301,2.031 4.301,2.086 4.301,2.133 4.3,2.171 4.305,2.215 4.301,2.246 4.301,-0.75 4.3,-1.726 4.301,-1.692 4.301,-1.648 4.305,-1.594 4.3,-1.531 4.301,-1.469 4.301,-1.39 4.301,-1.317 4.304,-1.23 4.301,-1.149 4.301,-1.058 4.301,-0.973 4.301,-0.883 4.304,-0.793 4.301,-0.707 4.301,-0.617 4.301,-0.539 4.3,-0.457 4.301,-0.379 4.305,-0.309 4.301,-0.238 4.3,-0.176 4.301,-0.121 4.301,-0.062 4.305,-0.02 4.3,0.024 4.301,0.062 4.301,0.094 4.301,0.125 4.301,0.145 4.304,0.164 4.301,0.175 4.301,0.192 4.301,0.195 4.3,0.199 4.305,0.2 8.602,0.398 4.3,0.191 4.301,0.184 4.305,0.176 4.301,0.172 4.3,0.16 4.301,0.148 4.301,0.141 4.301,0.129 4.304,0.121 4.301,0.109 4.301,0.102 v 80.543 l -4.301,-0.125 -4.301,-0.137 -4.304,-0.156 -4.301,-0.172 -4.301,-0.192 -4.301,-0.214 -4.3,-0.239 -4.301,-0.265 -4.305,-0.293 -4.301,-0.324 -4.3,-0.356 -4.301,-0.394 -4.301,-0.434 -4.305,-0.473 -4.3,-0.519 -4.301,-0.567 -4.301,-0.617 -4.301,-0.672 -4.304,-0.73 -4.301,-0.789 -4.301,-0.856 -4.301,-0.918 -4.301,-0.988 -4.3,-1.062 -4.305,-1.133 -4.301,-1.207 -4.301,-1.285 -4.3,-1.364 -4.301,-1.441 -4.305,-1.516 -4.301,-1.597 -4.3,-1.672 -4.301,-1.746 -4.301,-1.817 -4.301,-1.886 -4.304,-1.954 -4.301,-2.015 -4.301,-2.074 -4.301,-2.122 -4.301,-2.171 -4.304,-2.211 -4.301,-2.246 -4.301,-2.27 -4.301,-2.297 -4.3,-2.305 -4.305,-2.316 -4.301,-2.312 -4.301,-2.309 -4.3,-2.289 -4.301,-1.266 -4.301,1.77 -4.305,1.777 -4.3,1.77 -4.301,1.754 -4.301,1.73 -4.301,1.684 -4.305,1.636 -4.3,1.575 -4.301,1.496 -4.301,1.414 -4.301,1.316 -4.304,1.211 -4.301,1.098 -4.301,0.968 -4.301,0.84 -4.3,0.7 -4.301,0.554 -4.305,0.399 -4.301,0.246 -4.3,0.082 -4.301,-0.078 -4.301,-0.243 -4.305,-0.406 -4.3,-0.57 -4.301,-0.734 -4.301,-0.891 -4.301,-1.047 -4.301,-1.195 -4.304,-1.34 -4.301,-1.477 -4.301,-1.601 -4.301,-1.723 -4.3,-1.828 -4.305,-1.93 -4.301,-2.008 -4.301,-2.085 -4.3,-2.137 -4.301,-2.188 -4.305,-2.211 -8.602,-4.453 -4.3,-2.207 -4.301,-2.172 -4.301,-2.125 -4.305,-2.058 -4.3,-1.977 -4.301,-1.883 -4.301,-1.769 -4.301,-1.645 -4.304,0.496 -4.301,2.641 -4.301,2.777 -4.301,2.907 -4.3,3.031 -4.305,3.148 -4.301,3.258 -4.301,3.36 -4.3,3.449 -4.301,3.527 -4.301,3.602 -4.305,3.664 -4.301,3.711 -4.3,3.754 -4.301,3.781 -4.301,3.797 -4.305,3.804 -4.3,3.801 -4.301,3.781 -4.301,3.754 -4.301,3.715 -4.3,3.66 -4.305,3.598 -4.301,3.523 -4.301,3.434 -4.301,3.332 -4.3,3.223 -4.305,3.097 -4.301,2.961 -4.301,2.817 -4.3,2.652 -4.301,2.488 -4.305,2.301 -4.301,2.113 -4.3,1.911 -4.301,1.703 -4.301,1.484 -4.301,1.254 -4.304,1.027 -4.301,0.785 -4.301,0.547 -4.301,0.301 -4.3,0.055 -4.305,-0.192 -4.301,-0.437 -4.301,-0.68 -4.301,-0.922 -4.3,-1.152 -4.305,-1.383 -4.301,-1.601 -4.301,1.211 -4.3,2.007 -4.301,1.801 -4.301,1.59 -4.305,1.371 -4.3,1.16 -4.301,0.945 -4.301,0.739 -4.301,0.527 -4.304,0.332 -4.301,0.137 -4.301,-0.047 -4.301,-0.223 -4.301,-0.39 -4.3,-0.543 -4.305,-0.688 -4.301,-0.816 -4.301,-0.938 -4.3,-1.043 -4.301,-1.136 -4.305,-1.215 -4.301,-1.281 -4.3,-1.332 -4.301,-1.375 -4.301,-1.407 -4.305,-1.425 -8.601,-2.86 -4.301,-1.414 -4.301,-1.394 -4.301,-1.372 -4.304,-1.332 -4.301,-1.293 -4.301,-1.246 -4.301,-1.195 -4.3,-1.144 -4.305,-1.09 -4.301,-1.032 -4.301,-0.972 -4.3,-0.914 -4.301,-0.856 -4.305,-0.801 -4.301,-0.738 -4.3,-0.683 -4.301,-0.633 -4.301,-0.582 -4.301,-0.528 -4.304,-0.484 -4.301,-0.441 z"
         style="fill:#000000;fill-opacity:0.2;fill-rule:nonzero;stroke:none"
         transform="scale(1.3333333)"
         clip-path="url(#clipPath10)"
         id="path11" />
    </g>
    <g
       id="g13">
      <path
         d="M 0,207.805 V 46.723 l 4.301,0.433 4.301,0.481 4.304,0.535 4.301,0.594 4.301,0.66 4.301,0.726 4.3,0.805 4.301,0.883 4.305,0.972 4.301,1.063 4.3,1.164 4.301,1.266 4.301,1.379 4.305,1.5 4.3,1.625 4.301,1.753 4.301,1.891 4.301,2.031 4.304,2.184 4.301,2.336 4.301,2.492 4.301,2.656 4.301,2.817 4.3,2.984 4.305,3.149 4.301,3.316 4.301,3.48 4.3,3.645 4.301,3.801 4.305,3.953 4.301,4.101 4.3,4.235 4.301,4.359 4.301,4.477 4.305,4.578 4.3,4.664 4.301,4.734 4.301,4.789 4.301,4.821 4.301,4.84 4.304,4.835 4.301,4.809 4.301,4.762 4.301,4.691 4.3,4.602 4.305,4.488 4.301,4.356 4.301,4.195 4.3,4.023 4.301,1.809 4.301,-4.422 4.305,-4.602 4.3,-4.765 4.301,-4.91 4.301,-5.036 4.301,-5.144 4.305,-5.227 4.3,-5.297 4.301,-5.335 8.602,-10.727 4.304,-5.344 4.301,-5.304 4.301,-5.247 4.301,-5.16 4.3,-5.062 4.301,-4.942 4.305,-4.804 4.301,-4.649 4.3,-4.472 4.301,-4.286 4.301,-4.078 4.305,-3.855 4.3,-3.625 4.301,-3.375 4.301,-3.113 4.301,-2.848 4.305,-2.563 4.3,-2.273 4.301,-1.977 4.301,-1.668 4.301,-1.359 4.3,-1.047 4.305,-0.726 4.301,-0.407 4.301,-0.086 4.3,0.231 4.301,0.547 4.305,0.855 4.301,1.164 4.301,1.457 4.3,1.743 4.301,2.019 4.301,2.281 4.305,2.528 4.3,2.761 4.301,2.977 4.301,3.172 4.301,3.351 4.304,-0.496 4.301,-4.343 4.301,-4.18 4.301,-4.004 4.3,-3.816 4.305,-3.622 4.301,-3.414 4.301,-3.203 4.3,-2.984 4.301,-2.762 4.301,-2.535 4.305,-2.305 4.301,-2.074 4.3,-1.844 4.301,-1.613 4.301,-1.379 4.305,-1.152 4.3,-0.926 4.301,-0.699 4.301,-0.481 4.301,-0.265 4.304,-0.047 4.301,0.16 4.301,0.371 4.301,0.574 4.301,0.774 4.3,0.972 4.305,1.165 4.301,1.359 4.301,1.551 4.3,1.734 4.301,1.918 4.305,2.098 4.301,2.277 4.3,2.453 4.301,2.621 4.301,2.789 4.301,2.953 4.304,3.106 4.301,3.262 4.301,3.402 4.301,3.539 4.3,3.664 4.305,3.785 4.301,3.895 4.301,3.988 4.301,4.078 4.3,4.149 4.305,4.207 4.301,4.254 4.301,-1.754 4.3,-3.739 4.301,-3.691 4.301,-3.629 4.305,-3.547 4.3,-3.453 4.301,-3.348 4.301,-3.222 4.301,-3.098 4.304,-2.953 4.301,-2.805 4.301,-2.652 4.301,-2.492 4.301,-2.332 4.304,-2.168 4.301,-2 4.301,-1.84 4.301,-1.68 4.3,-1.519 4.301,-1.368 4.305,-1.222 4.301,-1.078 4.3,-0.946 4.301,-0.82 4.301,-0.703 4.305,-0.594 4.3,-0.492 4.301,-0.402 4.301,-0.317 4.301,-0.246 4.301,-0.176 4.304,-0.121 4.301,-0.07 4.301,-0.023 4.301,0.007 4.3,0.043 4.305,0.063 4.301,0.082 4.301,0.101 4.3,0.106 4.301,0.117 4.305,0.121 4.301,0.121 4.3,0.117 4.301,0.122 4.301,0.113 4.301,0.109 4.304,0.102 4.301,0.097 4.301,0.09 v 161.082 l -4.301,-0.133 -4.301,-0.152 -4.304,-0.172 -4.301,-0.195 -4.301,-0.219 -4.301,-0.246 -4.3,-0.277 -4.301,-0.313 -4.305,-0.351 -4.301,-0.395 -4.3,-0.437 -4.301,-0.493 -4.301,-0.546 -4.305,-0.614 -4.3,-0.675 -4.301,-0.754 -4.301,-0.832 -4.301,-0.918 -4.304,-1.016 -4.301,-1.113 -4.301,-1.219 -4.301,-1.332 -4.301,-1.453 -4.3,-1.574 -4.305,-1.711 -4.301,-1.844 -4.301,-1.988 -4.3,-2.133 -4.301,-2.281 -4.305,-2.43 -4.301,-2.582 -4.3,-2.738 -4.301,-2.887 -4.301,-3.035 -4.301,-3.184 -4.304,-3.328 -4.301,-3.465 -4.301,-3.594 -4.301,-3.714 -4.301,-3.829 -4.304,-3.933 -4.301,-4.024 -4.301,-4.105 -4.301,-4.176 -4.3,-4.226 -4.305,-4.27 -4.301,-4.293 -8.601,-8.609 -4.301,-2.274 -4.301,3.781 -4.305,3.77 -4.3,3.746 -4.301,3.699 -4.301,3.633 -4.301,3.547 -4.305,3.441 -4.3,3.321 -4.301,3.176 -4.301,3.019 -4.301,2.84 -4.304,2.652 -4.301,2.446 -4.301,2.226 -4.301,1.992 -4.3,1.75 -4.301,1.496 -4.305,1.231 -4.301,0.969 -4.3,0.687 -4.301,0.414 -4.301,0.129 -4.305,-0.152 -4.3,-0.438 -4.301,-0.718 -4.301,-1 -4.301,-1.27 -4.301,-1.543 -4.304,-1.801 -4.301,-2.054 -4.301,-2.301 -4.301,-2.528 -4.3,-2.75 -4.305,-2.953 -4.301,-3.14 -4.301,-3.313 -4.3,-3.469 -4.301,-3.605 -4.305,-3.719 -4.301,-3.812 -4.301,-3.887 -4.3,-3.941 -4.301,-3.965 -4.301,-3.969 -4.305,-3.953 -4.3,-3.906 -4.301,-3.844 -4.301,-3.754 -4.301,-3.637 -4.304,0.492 -4.301,4.637 -4.301,4.758 -4.301,4.871 -4.3,4.965 -4.305,5.039 -4.301,5.105 -4.301,5.149 -4.3,5.18 -8.602,10.382 -4.305,5.168 -4.301,5.129 -4.3,5.082 -4.301,5.012 -4.301,4.93 -4.305,4.828 -4.3,4.719 -4.301,4.589 -4.301,4.45 -4.301,4.293 -4.3,4.125 -4.305,3.945 -4.301,3.746 -4.301,3.539 -4.301,3.32 -4.3,3.09 -4.305,2.844 -4.301,2.59 -4.301,2.324 -4.3,2.047 -4.301,1.766 -4.305,1.468 -4.301,1.168 -4.3,0.864 -4.301,0.546 -4.301,0.231 -4.301,-0.094 -4.304,-0.414 -4.301,-0.738 -4.301,-1.059 -4.301,-1.379 -4.3,-1.691 -4.305,-1.996 -4.301,-2.301 -4.301,-2.586 -4.301,-2.863 -4.3,-3.129 -4.305,-3.375 -4.301,-3.61 -4.301,2.215 -4.3,4.02 -4.301,3.801 -4.301,3.57 -4.305,3.324 -4.3,3.082 -4.301,2.824 -4.301,2.571 -4.301,2.308 -4.304,2.055 -4.301,1.797 -4.301,1.543 -4.301,1.297 -4.301,1.062 -4.3,0.828 -4.305,0.61 -4.301,0.398 -4.301,0.207 -4.3,0.02 -4.301,-0.145 -4.305,-0.305 -4.301,-0.437 -4.3,-0.566 -4.301,-0.676 -4.301,-0.766 -4.305,-0.851 -4.3,-0.911 -4.301,-0.964 -4.301,-1.004 -4.301,-1.032 -4.301,-1.043 -4.304,-1.05 -4.301,-1.047 -4.301,-1.031 -4.301,-1.012 -4.3,-0.984 -4.305,-0.954 -4.301,-0.914 -4.301,-0.875 -4.3,-0.832 -4.301,-0.785 -4.305,-0.742 -4.301,-0.691 -4.3,-0.645 -4.301,-0.602 -4.301,-0.554 -4.301,-0.508 -4.304,-0.465 -4.301,-0.426 z"
         style="fill:#000000;fill-opacity:0.15;fill-rule:nonzero;stroke:none"
         transform="scale(1.3333333)"
         clip-path="url(#clipPath12)"
         id="path13" />
    </g>
    <g
       id="g15">
      <path
         d="M 0,248.078 V 6.453 l 4.301,0.442 4.301,0.496 4.304,0.55 4.301,0.618 4.301,0.683 4.301,0.762 4.3,0.844 4.301,0.929 4.305,1.032 4.301,1.132 4.3,1.247 4.301,1.363 4.301,1.496 4.305,1.637 4.3,1.781 4.301,1.941 4.301,2.106 4.301,2.281 4.304,2.465 4.301,2.656 4.301,2.859 4.301,3.067 4.301,3.281 4.3,3.504 4.305,3.723 4.301,3.953 4.301,4.183 4.3,4.414 4.301,4.641 4.305,4.867 4.301,5.086 4.3,5.301 4.301,5.5 4.301,5.695 4.305,5.875 4.3,6.039 4.301,6.18 4.301,6.313 4.301,6.414 4.301,6.496 4.304,6.558 4.301,6.586 4.301,6.598 4.301,6.57 4.3,6.524 4.305,6.441 4.301,6.332 4.301,6.199 4.3,6.032 4.301,2.816 4.301,-6.43 4.305,-6.597 4.3,-6.739 4.301,-6.855 4.301,-6.942 4.301,-7 4.305,-7.035 4.3,-7.043 4.301,-7.015 4.301,-6.969 4.301,-6.887 4.304,-6.785 4.301,-6.652 4.301,-6.5 4.301,-6.317 4.3,-6.113 4.301,-5.883 4.305,-5.637 4.301,-5.371 4.3,-5.078 4.301,-4.773 4.301,-4.449 4.305,-4.114 4.3,-3.754 4.301,-3.39 4.301,-3.012 4.301,-2.617 4.305,-2.219 4.3,-1.812 4.301,-1.395 4.301,-0.976 4.301,-0.551 4.3,-0.125 4.305,0.301 4.301,0.722 4.301,1.145 4.3,1.558 4.301,1.965 4.305,2.363 4.301,2.75 4.301,3.118 4.3,3.476 4.301,3.809 4.301,4.129 4.305,4.422 4.3,4.691 4.301,4.937 4.301,5.157 4.301,5.347 4.304,-0.496 4.301,-6.34 4.301,-6.164 4.301,-5.964 4.3,-5.747 4.305,-5.515 4.301,-5.262 4.301,-4.992 4.3,-4.719 4.301,-4.422 4.301,-4.121 4.305,-3.812 4.301,-3.496 4.3,-3.168 4.301,-2.844 4.301,-2.512 4.305,-2.176 4.3,-1.843 4.301,-1.512 4.301,-1.176 4.301,-0.84 4.304,-0.511 4.301,-0.184 4.301,0.145 4.301,0.464 4.301,0.789 4.3,1.106 4.305,1.422 4.301,1.73 4.301,2.039 4.3,2.34 4.301,2.637 4.305,2.933 4.301,3.223 4.3,3.5 4.301,3.777 4.301,4.043 4.301,4.301 4.304,4.547 4.301,4.785 4.301,5.008 4.301,5.219 4.3,5.41 4.305,5.594 4.301,5.754 4.301,5.894 4.301,6.02 4.3,6.121 4.305,6.203 4.301,6.262 4.301,-2.762 4.3,-5.75 4.301,-5.692 4.301,-5.605 4.305,-5.504 4.3,-5.371 4.301,-5.227 4.301,-5.058 4.301,-4.875 4.304,-4.676 4.301,-4.465 4.301,-4.242 4.301,-4.016 4.301,-3.777 4.304,-3.539 4.301,-3.301 4.301,-3.058 4.301,-2.821 4.3,-2.582 4.301,-2.355 4.305,-2.137 4.301,-1.918 4.3,-1.719 4.301,-1.519 4.301,-1.34 4.305,-1.168 4.3,-1.012 4.301,-0.863 4.301,-0.73 4.301,-0.61 4.301,-0.5 4.304,-0.402 4.301,-0.317 4.301,-0.242 4.301,-0.175 4.3,-0.122 4.305,-0.07 4.301,-0.031 h 4.301 l 4.3,0.023 4.301,0.047 4.305,0.063 4.301,0.074 4.3,0.078 4.301,0.086 4.301,0.09 4.301,0.086 4.304,0.086 8.602,0.164 v 241.625 l -4.301,-0.149 -4.301,-0.164 -4.304,-0.191 -4.301,-0.215 -4.301,-0.246 -4.301,-0.277 -4.3,-0.317 -4.301,-0.363 -4.305,-0.406 -4.301,-0.461 -4.3,-0.524 -4.301,-0.59 -4.301,-0.664 -4.305,-0.746 -4.3,-0.84 -4.301,-0.937 -4.301,-1.047 -4.301,-1.168 -4.304,-1.297 -4.301,-1.433 -4.301,-1.586 -4.301,-1.746 -4.301,-1.915 -4.3,-2.093 -4.305,-2.285 -4.301,-2.485 -4.301,-2.687 -4.3,-2.903 -4.301,-3.121 -4.305,-3.343 -4.301,-3.571 -4.3,-3.801 -4.301,-4.027 -4.301,-4.258 -4.301,-4.48 -4.304,-4.699 -4.301,-4.911 -4.301,-5.117 -4.301,-5.308 -4.301,-5.489 -4.304,-5.652 -4.301,-5.805 -4.301,-5.937 -4.301,-6.055 -4.3,-6.148 -4.305,-6.219 -4.301,-6.277 -4.301,-6.305 -4.3,-6.313 -4.301,-3.281 -4.301,5.789 -4.305,5.766 -4.3,5.719 -4.301,5.64 -4.301,5.539 -4.301,5.407 -4.305,5.25 -4.3,5.066 -4.301,4.855 -4.301,4.622 -4.301,4.371 -4.304,4.089 -4.301,3.793 -4.301,3.481 -4.301,3.144 -4.3,2.801 -4.301,2.438 -4.305,2.07 -4.301,1.684 -4.3,1.296 -4.301,0.903 -4.301,0.5 -4.305,0.101 -4.3,-0.304 -4.301,-0.703 -4.301,-1.106 -4.301,-1.496 -4.301,-1.887 -4.304,-2.265 -4.301,-2.633 -4.301,-2.992 -4.301,-3.34 -4.3,-3.664 -4.305,-3.981 -4.301,-4.273 -4.301,-4.543 -4.3,-4.797 -4.301,-5.023 -4.305,-5.227 -4.301,-5.398 -4.301,-5.551 -4.3,-5.668 -4.301,-5.758 -4.301,-5.816 -4.305,-5.844 -4.3,-5.84 -4.301,-5.805 -4.301,-5.734 -4.301,-5.637 -4.304,0.492 -4.301,6.633 -4.301,6.742 -4.301,6.832 -4.3,6.895 -4.305,6.934 -4.301,6.953 -4.301,6.941 -4.3,6.91 -4.301,6.852 -4.301,6.777 -4.305,6.672 -4.301,6.555 -4.3,6.406 -4.301,6.242 -4.301,6.063 -4.305,5.855 -4.3,5.637 -4.301,5.398 -4.301,5.141 -4.301,4.875 -4.3,4.586 -4.305,4.289 -4.301,3.973 -4.301,3.644 -4.301,3.309 -4.3,2.953 -4.305,2.59 -4.301,2.218 -4.301,1.836 -4.3,1.442 -4.301,1.043 -4.305,0.636 -4.301,0.227 -4.3,-0.191 -4.301,-0.606 -4.301,-1.023 -4.301,-1.442 -4.304,-1.855 -4.301,-2.262 -4.301,-2.664 -4.301,-3.059 -4.3,-3.437 -4.305,-3.805 -4.301,-4.16 -4.301,-4.492 -4.301,-4.805 -4.3,-5.101 -4.305,-5.371 -4.301,-5.618 -4.301,3.223 -4.3,6.031 -4.301,5.797 -4.301,5.551 -4.305,5.281 -4.3,5 -4.301,4.703 -4.301,4.403 -4.301,4.089 -4.304,3.774 -4.301,3.457 -4.301,3.137 -4.301,2.82 -4.301,2.508 -4.3,2.203 -4.305,1.906 -4.301,1.617 -4.301,1.348 -4.3,1.086 -4.301,0.84 -4.305,0.609 -4.301,0.403 -4.3,0.203 -4.301,0.027 -4.301,-0.133 -4.305,-0.269 -4.3,-0.399 -4.301,-0.5 -4.301,-0.59 -4.301,-0.664 -4.301,-0.722 -4.304,-0.77 -4.301,-0.797 -4.301,-0.816 -4.301,-0.828 -4.3,-0.824 -4.305,-0.817 -4.301,-0.797 -4.301,-0.777 -4.3,-0.75 -4.301,-0.719 -4.305,-0.68 -4.301,-0.644 -4.3,-0.606 -4.301,-0.566 -4.301,-0.527 -4.301,-0.489 -4.304,-0.449 -4.301,-0.414 z"
         style="fill:#000000;fill-opacity:0.1;fill-rule:nonzero;stroke:none"
         transform="scale(1.3333333)"
         clip-path="url(#clipPath14)"
         id="path15" />
    </g>
    <g
       id="g17">
      <path
         d="m 0,-83.863 8.608,6.652 4.307,3.109 4.304,2.934 4.304,2.738 4.304,2.516 4.304,2.277 4.303,2.016 4.308,1.734 4.304,1.438 4.304,1.129 4.303,0.804 4.304,0.469 4.308,0.125 4.304,-0.226 4.304,-0.582 4.303,-0.942 4.304,-1.297 4.308,-1.656 4.304,-2.012 4.304,-2.351 4.303,-2.692 4.304,-3.019 4.304,-3.328 4.308,-3.625 4.304,-3.91 4.303,-4.165 4.304,-4.406 4.304,-4.625 4.308,-4.816 8.607,-10.11 8.608,-10.554 21.523,-26.836 8.611,-10.285 4.304,-4.93 4.304,-4.75 4.304,-4.543 4.304,-4.313 4.307,-4.058 4.304,-3.781 4.304,-3.485 4.304,-3.168 4.303,-2.832 4.304,-2.484 4.308,-2.125 4.304,-1.754 4.304,-1.375 4.303,-0.988 4.304,-0.602 4.308,-0.211 4.304,0.18 4.304,0.562 4.303,0.938 4.304,1.312 4.308,1.672 4.304,2.016 4.304,2.351 4.303,2.665 4.304,2.96 4.304,3.243 4.308,3.492 4.303,3.726 4.304,3.938 4.304,4.117 8.612,8.676 8.607,9.082 21.523,23.031 8.608,8.774 4.304,4.195 4.307,4.031 4.304,3.852 4.304,3.652 4.304,3.434 4.303,3.199 4.308,2.953 4.304,2.691 4.304,2.418 4.304,2.141 4.303,1.855 4.304,1.567 4.308,1.277 4.304,0.988 4.304,0.7 4.303,0.414 4.304,0.136 4.308,-0.128 4.304,-0.391 4.304,-0.633 4.303,-0.867 4.304,-1.086 4.308,-1.285 4.304,-1.473 4.303,-1.633 4.304,-1.781 8.608,-3.914 8.611,-4.242 21.523,-10.91 8.608,-4.051 8.611,-3.645 4.304,-1.632 4.304,-1.485 4.304,-1.328 4.304,-1.156 4.304,-0.981 4.307,-0.797 4.304,-0.605 4.304,-0.414 4.304,-0.219 4.303,-0.027 4.308,0.168 4.304,0.351 4.304,0.532 4.304,0.707 4.303,0.871 4.304,1.019 4.308,1.16 8.608,2.684 8.607,3.055 12.915,4.961 12.916,4.937 8.607,3.008 4.304,1.355 4.304,1.239 4.304,1.094 4.308,0.933 4.303,0.762 4.304,0.57 4.304,0.363 4.304,0.153 4.307,-0.078 4.304,-0.317 4.304,-0.554 4.304,-0.809 4.304,-1.059 4.307,-1.312 4.304,-1.567 4.304,-1.812 4.304,-2.063 4.304,-2.304 4.303,-2.532 4.308,-2.75 4.304,-2.96 4.304,-3.157 4.304,-3.328 8.611,-7.125 8.608,-7.597 12.911,-11.907 12.915,-11.906 8.608,-7.598 4.308,-3.617 4.304,-3.465 4.303,-3.285 4.304,-3.082 4.304,-2.851 4.308,-2.61 4.304,-2.34 4.303,-2.05 4.304,-1.746 4.304,-1.426 4.304,-1.094 4.307,-0.746 4.304,-0.391 4.304,-0.031"
         style="fill:none;stroke:#000000;stroke-width:1.00147;stroke-linecap:square;stroke-linejoin:round;stroke-miterlimit:10;stroke-dasharray:none;stroke-opacity:1"
         transform="scale(1.332396,-1.3333333)"
         clip-path="url(#clipPath16)"
         id="path17" />
    </g>
    <g
       id="g19">
      <path
         d="m 0,-127.266 8.608,-0.863 8.611,-1.051 8.608,-1.269 8.607,-1.516 8.612,-1.777 8.607,-2.07 8.612,-2.372 8.608,-2.687 8.607,-3.004 8.612,-3.305 8.607,-3.59 8.608,-3.839 12.915,-6.121 30.131,-14.7 8.611,-3.898 8.608,-3.582 8.608,-3.16 4.307,-1.395 4.304,-1.246 4.304,-1.098 4.304,-0.933 4.304,-0.762 4.307,-0.578 4.304,-0.395 4.304,-0.199 h 4.304 l 4.303,0.203 4.304,0.407 4.308,0.613 4.304,0.82 4.304,1.024 4.303,1.222 4.304,1.422 4.308,1.617 4.304,1.801 4.304,1.981 4.303,2.148 4.304,2.313 4.308,2.464 4.304,2.61 8.607,5.59 8.608,6.019 8.611,6.34 12.912,9.898 21.523,16.68 8.611,6.453 8.608,6.192 8.608,5.859 8.611,5.445 8.608,4.973 4.303,2.293 4.308,2.156 4.304,2.012 4.304,1.871 4.304,1.715 4.303,1.566 4.304,1.41 4.308,1.258 4.304,1.102 4.304,0.945 4.303,0.793 4.304,0.645 4.308,0.496 4.304,0.351 4.304,0.211 4.303,0.082 4.304,-0.047 4.308,-0.164 8.607,-0.66 8.608,-1.039 8.612,-1.344 8.607,-1.578 12.916,-2.633 25.826,-5.359 12.912,-2.352 8.611,-1.367 8.608,-1.179 8.607,-1 8.612,-0.825 12.911,-0.949 12.916,-0.687 47.349,-2.176 12.912,-0.922 12.915,-1.16 12.915,-1.395 12.912,-1.597 21.523,-2.938 30.13,-4.168 17.22,-2.133 12.915,-1.402 12.911,-1.211 12.916,-1.012 12.911,-0.824 17.219,-0.832 17.219,-0.582 4.304,-0.113"
         style="fill:none;stroke:#000000;stroke-width:1.00147;stroke-linecap:butt;stroke-linejoin:round;stroke-miterlimit:10;stroke-dasharray:3.70542, 1.60234;stroke-dashoffset:0;stroke-opacity:1"
         transform="scale(1.332396,-1.3333333)"
         clip-path="url(#clipPath18)"
         id="path19" />
    </g>
  </g>
</svg>
